<?xml version="1.0" encoding="iso-8859-1"?>
<!-- Generator: Adobe Illustrator 19.0.0, SVG Export Plug-In . SVG Version: 6.00 Build 0)  -->
<svg version="1.1" id="Capa_1" xmlns="http://www.w3.org/2000/svg" xmlns:xlink="http://www.w3.org/1999/xlink" x="0px" y="0px"
	 viewBox="0 0 480.004 480.004" style="enable-background:new 0 0 480.004 480.004;" xml:space="preserve">
<g>
	<g>
		<path d="M474.272,163.714l-81.28-67.712L474.24,28.29c5.152-4.32,7.104-11.424,4.8-17.728c-2.304-6.336-8.288-10.56-15.04-10.56
			H208c-8.832,0-16,7.168-16,16v160v224c0,8.832,7.168,16,16,16c8.832,0,16-7.168,16-16v-208h240c6.752,0,12.736-4.224,15.04-10.56
			C481.344,175.138,479.424,168.034,474.272,163.714z M224,160.002v-128h195.808L357.76,83.714c-3.68,3.04-5.76,7.552-5.76,12.288
			c0,4.736,2.08,9.248,5.76,12.288l62.048,51.712H224z"/>
	</g>
</g>
<g>
	<g>
		<path d="M273.856,323.938c-8.704-0.864-16.704,5.28-17.76,14.048c-0.992,8.768,5.28,16.704,14.048,17.76
			C350.592,365.026,384,389.154,384,400.002c0,16.288-62.112,48-176,48s-176-31.712-176-48c0-10.848,33.408-34.976,113.856-44.256
			c8.768-1.024,15.072-8.96,14.048-17.76c-1.024-8.8-9.12-15.008-17.76-14.048C53.152,334.242,0,362.69,0,400.002
			c0,52.544,104.64,80,208,80s208-27.456,208-80C416,362.69,362.848,334.242,273.856,323.938z"/>
	</g>
</g>
<g>
</g>
<g>
</g>
<g>
</g>
<g>
</g>
<g>
</g>
<g>
</g>
<g>
</g>
<g>
</g>
<g>
</g>
<g>
</g>
<g>
</g>
<g>
</g>
<g>
</g>
<g>
</g>
<g>
</g>
</svg>
